<?xml version="1.0" standalone="no"?>
<!DOCTYPE svg PUBLIC "-//W3C//DTD SVG 20010904//EN"
 "http://www.w3.org/TR/2001/REC-SVG-20010904/DTD/svg10.dtd">
<svg version="1.0" xmlns="http://www.w3.org/2000/svg"
 width="70.000000pt" height="70.000000pt" viewBox="0 0 70.000000 70.000000"
 preserveAspectRatio="xMidYMid meet">
<metadata>
Created by potrace 1.14, written by Peter Selinger 2001-2017
</metadata>
<g transform="translate(0.000000,70.000000) scale(0.100000,-0.100000)"
fill="#000000" stroke="none">
<path d="M253 686 c-104 -34 -176 -98 -222 -196 -21 -45 -26 -70 -26 -140 0
-76 4 -93 33 -152 118 -241 451 -265 600 -44 121 181 53 421 -146 513 -65 31
-177 39 -239 19z m228 -93 c98 -53 156 -159 145 -266 -11 -105 -65 -182 -161
-230 -41 -20 -63 -24 -120 -23 -108 3 -188 52 -240 148 -35 63 -42 158 -17
223 61 160 245 229 393 148z"/>
<path d="M213 482 c-13 -2 -23 -5 -23 -6 0 -2 -5 -28 -10 -57 -6 -30 -13 -67
-15 -84 -3 -16 -9 -44 -14 -62 -8 -29 -7 -31 19 -35 49 -7 66 6 73 56 8 60 32
115 53 123 27 10 32 -15 18 -90 -8 -40 -14 -75 -14 -79 0 -5 20 -8 44 -8 l43
0 12 69 c21 130 10 181 -39 181 -26 0 -73 -19 -82 -33 -5 -8 -8 -7 -8 4 0 18
-23 27 -57 21z"/>
<path d="M475 483 c-29 -7 -45 -23 -45 -44 0 -12 7 -19 19 -19 28 0 31 -19 15
-101 -8 -41 -14 -75 -14 -76 0 -2 20 -3 43 -3 l44 0 13 73 c29 149 10 191 -75
170z"/>
</g>
</svg>
